<svg xmlns="http://www.w3.org/2000/svg" width="20.351" height="16.23" viewBox="0 0 20.351 16.23">
  <g id="man" transform="translate(5.925 -2)">
    <g id="Group_68" data-name="Group 68" transform="translate(-5.925 2)">
      <g id="Group_64" data-name="Group 64">
        <path id="Path_19" data-name="Path 19" d="M160.791,26.042l.6-1.855a6.912,6.912,0,0,0-3.664-2.642l-1.56,1.125v2.253l2.5,1.806Z" transform="translate(-148.077 -20.429)" fill="#fff"/>
        <path id="Path_20" data-name="Path 20" d="M194.705,124.711l-1.586-1.154-2.2.714-.93,2.859,1.35,1.859,1.97,0a6.829,6.829,0,0,0,1.395-4.143C194.707,124.8,194.706,124.757,194.705,124.711Z" transform="translate(-180.149 -117.156)" fill="#fff"/>
        <path id="Path_21" data-name="Path 21" d="M19.775,123.656l-2.21-.718L16,124.074q0,.094,0,.188a6.829,6.829,0,0,0,1.36,4.1l1.954.006,1.377-1.9Z" transform="translate(-15.171 -116.569)" fill="#fff"/>
        <path id="Path_22" data-name="Path 22" d="M42.45,26.707l2.457-1.789V22.665L43.365,21.54A6.881,6.881,0,0,0,39.7,24.2L40.285,26Z" transform="translate(-37.645 -20.424)" fill="#fff"/>
        <path id="Path_23" data-name="Path 23" d="M94.2,200.5l-1.383,1.9.612,1.88a6.868,6.868,0,0,0,4.483.022l.613-1.881-1.4-1.924Z" transform="translate(-88.008 -190.113)" fill="#fff"/>
        <path id="Path_24" data-name="Path 24" d="M7.693,0a7.693,7.693,0,1,0,7.693,7.693A7.7,7.7,0,0,0,7.693,0Zm.4,2.241L9.65,1.116a6.9,6.9,0,0,1,3.66,2.642l-.6,1.855L10.589,6.3,8.09,4.494ZM5.72,1.116,7.262,2.241V4.494L4.8,6.283l-2.162-.7L2.055,3.774A6.886,6.886,0,0,1,5.72,1.116ZM2.189,11.79a6.829,6.829,0,0,1-1.36-4.1q0-.094,0-.188L2.394,6.369l2.21.718L5.52,9.9,4.143,11.8Zm7.714,2.4A6.868,6.868,0,0,1,5.42,14.17l-.612-1.88,1.383-1.9H9.119l1.4,1.924Zm1.29-2.36L9.843,9.974l.93-2.859,2.2-.714,1.586,1.154c0,.046,0,.092,0,.138a6.829,6.829,0,0,1-1.395,4.142Z" fill="#375fc9"/>
      </g>
      <g id="Group_67" data-name="Group 67" transform="translate(9.612 8.712)">
        <g id="Group_66" data-name="Group 66" transform="translate(-2 -1)">
          <g id="Group_65" data-name="Group 65">
            <path id="Path_26" data-name="Path 26" d="M178.275,159.06l-2.3,7.042h-1.751l-1.549-4.769-1.6,4.769h-1.741l-2.314-7.042h1.69l1.59,4.95,1.66-4.95h1.509l1.61,4.99,1.64-4.99h1.559m0-.488h-1.559a.488.488,0,0,0-.463.336l-1.172,3.567-1.15-3.564a.488.488,0,0,0-.464-.338h-1.509a.488.488,0,0,0-.463.333l-1.187,3.541-1.135-3.535a.488.488,0,0,0-.464-.339h-1.69a.488.488,0,0,0-.463.64l2.314,7.042a.488.488,0,0,0,.463.336h1.741a.488.488,0,0,0,.463-.333l1.13-3.368,1.093,3.363a.488.488,0,0,0,.464.337h1.751a.488.488,0,0,0,.464-.336l2.3-7.042a.488.488,0,0,0-.464-.64Zm0,.976h0Z" transform="translate(-166.529 -158.572)" fill="#fff" stroke="#fff" stroke-linecap="round" stroke-linejoin="round" stroke-width="1"/>
            <path id="Path_25" data-name="Path 25" d="M178.976,171.1a.244.244,0,0,1-.232-.169l-1.321-4.066-1.365,4.068a.244.244,0,0,1-.231.166h-1.741a.244.244,0,0,1-.232-.168l-2.314-7.042a.244.244,0,0,1,.232-.32h1.69a.244.244,0,0,1,.232.169l1.362,4.242,1.424-4.245a.244.244,0,0,1,.231-.166h1.509a.244.244,0,0,1,.232.169l1.38,4.277,1.406-4.278a.244.244,0,0,1,.232-.168h1.559a.244.244,0,0,1,.232.32l-2.3,7.042a.244.244,0,0,1-.232.168Z" transform="translate(-171.285 -163.327)" fill="#375fc9"/>
          </g>
        </g>
      </g>
    </g>
  </g>
</svg>
