<svg id="Logo" xmlns="http://www.w3.org/2000/svg" width="18" height="18" viewBox="0 0 18 18">
  <path id="Path_1" data-name="Path 1" d="M911,384.862A7.138,7.138,0,1,1,903.862,392,7.146,7.146,0,0,1,911,384.862M911,383a9,9,0,1,0,9,9,9,9,0,0,0-9-9Z" transform="translate(-902 -383)" fill="#606368"/>
  <path id="Path_2" data-name="Path 2" d="M920,411.269a9.035,9.035,0,0,0-.208-1.924h-2.8a.527.527,0,0,0-.5-.369h-.608a.527.527,0,0,0-.5.369h-2.456v-4.03a6.029,6.029,0,0,0-3.933.029v4h-3.357c-.028-.024-.057-.048-.087-.07a2.027,2.027,0,0,0-1.238-.352,2.163,2.163,0,0,0-1,.217,2.029,2.029,0,0,0-.321.206h-.779a9.03,9.03,0,0,0-.028,3.724H903.4a2.335,2.335,0,0,0,.941.186,2.658,2.658,0,0,0,.964-.184l0,0h1.093a1.741,1.741,0,0,0,.816.184,1.661,1.661,0,0,0,.79-.184h.979v4.124a6.028,6.028,0,0,0,3.933.029v-3.5a1.314,1.314,0,0,0,.1.094,1.788,1.788,0,0,0,1.162.319,2.227,2.227,0,0,0,.673-.09,1.355,1.355,0,0,0,.525-.3,1.276,1.276,0,0,0,.326-.532l.011-.035a.527.527,0,0,0,.156.024h.608a.525.525,0,0,0,.347-.132H917a1.391,1.391,0,0,0,.717.184,1.486,1.486,0,0,0,.558-.107.527.527,0,0,0,.233.055h.6a.524.524,0,0,0,.348-.132h.366A9.042,9.042,0,0,0,920,411.269Zm-5.807-3.476h-.09v-.621h.09a.346.346,0,1,0,.345-.345v-.09h.621v.09a.346.346,0,1,0,.345.345h.09v.621h-.09a.346.346,0,1,0-.345.345v.09h-.621v-.09a.346.346,0,1,0-.345-.345Zm-7.821,0h-.089v-.621h.089a.346.346,0,1,0,.345-.345v-.09h.621v.09a.346.346,0,1,0,.345.345h.089v.621h-.089a.346.346,0,1,0-.345.345v.09h-.621v-.09a.346.346,0,1,0-.345-.345Zm9.131,7.2h.09v.621h-.09a.346.346,0,1,0-.345.345v.09h-.621v-.09a.346.346,0,1,0-.345-.345h-.09v-.621h.09a.346.346,0,1,0,.345-.345v-.09h.621v.09a.346.346,0,1,0,.345.345Zm-7.821,0h.089v.621h-.089a.346.346,0,1,0-.345.345v.09h-.621v-.09a.346.346,0,1,0-.345-.345h-.089v-.621h.089a.346.346,0,1,0,.345-.345v-.09h.621v.09a.346.346,0,1,0,.345.345Z" transform="translate(-902 -402.269)" fill="#f03135"/>
  <path id="Path_3" data-name="Path 3" d="M910.716,442.15v1.263a.031.031,0,0,1-.01.022,1.79,1.79,0,0,1-.6.349,2.177,2.177,0,0,1-.787.15,1.785,1.785,0,0,1-.886-.213,1.367,1.367,0,0,1-.57-.61,1.963,1.963,0,0,1-.189-.858,1.857,1.857,0,0,1,.212-.895,1.437,1.437,0,0,1,.623-.6,1.688,1.688,0,0,1,.776-.161,1.56,1.56,0,0,1,.944.254,1.153,1.153,0,0,1,.44.7.031.031,0,0,1-.025.037l-.638.119a.031.031,0,0,1-.036-.022.644.644,0,0,0-.241-.352.74.74,0,0,0-.445-.129.846.846,0,0,0-.646.256,1.094,1.094,0,0,0-.24.768,1.214,1.214,0,0,0,.244.826.816.816,0,0,0,.636.272,1.085,1.085,0,0,0,.393-.077,1.386,1.386,0,0,0,.328-.178v-.356h-.7a.031.031,0,0,1-.031-.031v-.534a.031.031,0,0,1,.031-.031h1.384A.031.031,0,0,1,910.716,442.15Zm2.27-.331a1.53,1.53,0,0,1,.292,1.058.031.031,0,0,1-.031.031h-1.5a.569.569,0,0,0,.138.368.429.429,0,0,0,.329.14.341.341,0,0,0,.221-.071.454.454,0,0,0,.137-.235.031.031,0,0,1,.035-.022l.607.1a.031.031,0,0,1,.024.041,1.028,1.028,0,0,1-.382.522,1.124,1.124,0,0,1-.65.18,1.066,1.066,0,0,1-.914-.4,1.348,1.348,0,0,1-.234-.81,1.3,1.3,0,0,1,.308-.915,1.022,1.022,0,0,1,.78-.333A1.059,1.059,0,0,1,912.986,441.819Zm-.377.654a.536.536,0,0,0-.127-.349.41.41,0,0,0-.6.007.515.515,0,0,0-.12.342Zm3.06-.656a1.2,1.2,0,0,1,.343.877,1.216,1.216,0,0,1-.346.885,1.178,1.178,0,0,1-.872.352,1.379,1.379,0,0,1-.618-.146,1.016,1.016,0,0,1-.451-.431,1.429,1.429,0,0,1-.153-.686,1.278,1.278,0,0,1,.153-.6,1.064,1.064,0,0,1,.437-.445,1.3,1.3,0,0,1,.628-.153A1.188,1.188,0,0,1,915.669,441.818Zm-.5.381a.5.5,0,0,0-.755,0,.892.892,0,0,0,0,1,.5.5,0,0,0,.755,0,.743.743,0,0,0,.154-.507A.729.729,0,0,0,915.169,442.2Zm2.355-.728a.516.516,0,0,0-.281.078.831.831,0,0,0-.214.227v-.223a.031.031,0,0,0-.031-.031h-.566a.031.031,0,0,0-.031.031v2.3a.031.031,0,0,0,.031.031h.61a.031.031,0,0,0,.031-.031v-.709a3.612,3.612,0,0,1,.05-.761.454.454,0,0,1,.129-.238.391.391,0,0,1,.467.031.03.03,0,0,0,.027,0,.031.031,0,0,0,.019-.019l.189-.53a.031.031,0,0,0-.013-.037A.811.811,0,0,0,917.523,441.471Zm2.806.083v2.06a2.085,2.085,0,0,1-.069.617.786.786,0,0,1-.2.328.868.868,0,0,1-.336.186,1.749,1.749,0,0,1-.523.066,1.366,1.366,0,0,1-.851-.207.659.659,0,0,1-.257-.531c0-.021,0-.046,0-.075a.031.031,0,0,1,.011-.022.031.031,0,0,1,.024-.007l.7.084a.031.031,0,0,1,.027.026.21.21,0,0,0,.068.146.435.435,0,0,0,.255.059.686.686,0,0,0,.342-.067.265.265,0,0,0,.108-.138.9.9,0,0,0,.026-.268v-.246a.839.839,0,0,1-.659.314.884.884,0,0,1-.761-.4,1.363,1.363,0,0,1-.218-.787,1.3,1.3,0,0,1,.287-.9.935.935,0,0,1,.716-.315.86.86,0,0,1,.674.316v-.234a.031.031,0,0,1,.031-.031h.571A.031.031,0,0,1,920.33,441.553Zm-.8.606a.436.436,0,0,0-.349-.162.418.418,0,0,0-.337.159.769.769,0,0,0-.135.5.8.8,0,0,0,.135.515.407.407,0,0,0,.326.159.451.451,0,0,0,.354-.163.731.731,0,0,0,.146-.5A.777.777,0,0,0,919.528,442.16Zm1.983-1.511h-.61a.031.031,0,0,0-.031.031v.562a.031.031,0,0,0,.031.031h.61a.031.031,0,0,0,.031-.031v-.562A.031.031,0,0,0,921.511,440.649Zm0,.873h-.61a.031.031,0,0,0-.031.031v2.3a.031.031,0,0,0,.031.031h.61a.031.031,0,0,0,.031-.031v-2.3A.031.031,0,0,0,921.511,441.522Zm2.654,2.343a.031.031,0,0,1-.026.015h-.6a.031.031,0,0,1-.029-.02c-.016-.041-.036-.1-.06-.182l-.007-.024a1.116,1.116,0,0,1-.307.2,1,1,0,0,1-.392.078.82.82,0,0,1-.582-.2.671.671,0,0,1-.215-.509.682.682,0,0,1,.1-.363.639.639,0,0,1,.275-.245,2.071,2.071,0,0,1,.492-.144,3.576,3.576,0,0,0,.567-.14v-.039a.287.287,0,0,0-.076-.226.5.5,0,0,0-.307-.067.411.411,0,0,0-.236.058.416.416,0,0,0-.136.209.031.031,0,0,1-.035.02l-.553-.1a.03.03,0,0,1-.021-.014.032.032,0,0,1,0-.025.893.893,0,0,1,.333-.51,1.214,1.214,0,0,1,.7-.166,1.5,1.5,0,0,1,.621.1.64.64,0,0,1,.295.257,1.258,1.258,0,0,1,.085.559l-.007.709a2.438,2.438,0,0,0,.029.44,1.269,1.269,0,0,0,.107.3A.03.03,0,0,1,924.165,443.866Zm-1.122-1a1.1,1.1,0,0,0-.321.1.222.222,0,0,0-.106.188.266.266,0,0,0,.086.2.3.3,0,0,0,.221.084.5.5,0,0,0,.3-.1.353.353,0,0,0,.134-.185,1.175,1.175,0,0,0,.023-.287v-.079C923.3,442.813,923.185,442.84,923.043,442.87Z" transform="translate(-907.009 -433.445)" fill="#fff"/>
</svg>
